# xmcd
#
# Track frame offsets:
# 150
# 14713
# 28167
# 39090
# 63765
# 79978
# 91195
# 104853
# 114025
# 123690
# 135089
# 147464
# 175397
# 191655
# 205932
# 215129
# 227874
# 240468
# 254347
# 266755
# 281551
# 297642
# 310514
# 324872
#
# Disc length: 4523 seconds
#
# Revision: 1
# Processed by: cddbd v1.5.1PL0 Copyright (c) Steve Scherf et al.
# Submitted via: CedeCatalogueitor 2.6.0.4 http://personales.ya.com/cdcatalogueitor
#
DISCID=6611a918
DTITLE=Bob Dylan - Self Portrait
DYEAR=1970
DGENRE=
TTITLE0=All The Tired Horses
TTITLE1=Alberta # 1
TTITLE2=I Forget More Than You'll Ever Know
TTITLE3=Days Of 49
TTITLE4=Early Mornin' Rain
TTITLE5=In Search Of Little Sadie
TTITLE6=Let It Be Me
TTITLE7=Little Sadie
TTITLE8=Woogie Boogie
TTITLE9=Belle Isle
TTITLE10=Living The Blues
TTITLE11=Like A Rolling Stone
TTITLE12=Copper Kettle
TTITLE13=Gotta Travel On
TTITLE14=Blue Moon
TTITLE15=The Boxer
TTITLE16=The Mighty Quinn (Quinn The Eskimo)
TTITLE17=Take Me As I Am
TTITLE18=Take A Message To Mary
TTITLE19=It Hurts Me Too
TTITLE20=Minstrel Boy
TTITLE21=She Belongs To Me
TTITLE22=Wigwam
TTITLE23=Alberta # 2
EXTD=
EXTT0=
EXTT1=
EXTT2=
EXTT3=
EXTT4=
EXTT5=
EXTT6=
EXTT7=
EXTT8=
EXTT9=
EXTT10=
EXTT11=
EXTT12=
EXTT13=
EXTT14=
EXTT15=
EXTT16=
EXTT17=
EXTT18=
EXTT19=
EXTT20=
EXTT21=
EXTT22=
EXTT23=
PLAYORDER=
